<svg width="35" height="33" viewBox="0 0 35 33" fill="none" xmlns="http://www.w3.org/2000/svg">
<path d="M33.541 14.4005C34.8386 14.4005 35.3803 12.7334 34.3262 11.9649L18.2894 0.299511C18.0604 0.131718 17.7839 0.0412598 17.5 0.0412598C17.2161 0.0412598 16.9395 0.131718 16.7105 0.299511L0.673706 11.9649C-0.380298 12.7292 0.161401 14.4005 1.46316 14.4005H4.06248V30.1056H1.03904C0.854272 30.1056 0.7031 30.2567 0.7031 30.4415V32.6251C0.7031 32.8099 0.854272 32.961 1.03904 32.961H33.9609C34.1457 32.961 34.2969 32.8099 34.2969 32.6251V30.4415C34.2969 30.2567 34.1457 30.1056 33.9609 30.1056H30.9375V14.4005H33.541ZM11.999 30.1056H7.08591V14.4005H11.999V30.1056ZM19.9355 30.1056H15.0224V14.4005H19.9355V30.1056ZM27.914 30.1056H22.959V14.4005H27.914V30.1056ZM6.11589 11.5408L17.5 3.25996L28.8841 11.5408H6.11589Z" fill="#0099EA"/>
</svg>
