<svg width="48" height="48" viewBox="0 0 48 48" fill="none" xmlns="http://www.w3.org/2000/svg">
<path d="M24.5856 7.22901C24.4061 7.22869 24.2289 7.26862 24.0669 7.34588C23.9049 7.42314 23.7623 7.53574 23.6496 7.67541L23.436 7.83381C19.296 6.55221 14.5728 7.49301 11.2848 10.661C9.90789 11.9675 8.88359 13.6009 8.30706 15.4094C7.73054 17.2178 7.62051 19.1426 7.98719 21.005C7.94644 21.041 7.90643 21.0778 7.86719 21.1154L5.99759 22.9154C5.63594 23.2585 5.34792 23.6716 5.1511 24.1296C4.95429 24.5876 4.85278 25.0809 4.85278 25.5794C4.85278 26.0779 4.95429 26.5712 5.1511 27.0292C5.34792 27.4872 5.63594 27.9003 5.99759 28.2434C6.95279 29.165 8.27759 29.5106 9.50879 29.2802C9.65999 29.9738 10.0128 30.6338 10.572 31.1714C11.3088 31.8818 12.2664 32.249 13.2312 32.2754C13.2576 33.2042 13.6392 34.1258 14.376 34.8362C15.1128 35.5466 16.0728 35.9162 17.0376 35.9402C17.0616 36.869 17.4456 37.793 18.1824 38.5034C18.8878 39.1728 19.8118 39.564 20.7834 39.6046C21.755 39.6452 22.7084 39.3325 23.4672 38.7242L24.516 39.7322C26.052 41.213 28.5432 41.213 30.0792 39.7322C30.8136 39.0266 31.1952 38.1098 31.2288 37.1834C32.1888 37.1546 33.1368 36.7874 33.8688 36.0818C34.6032 35.3738 34.9848 34.457 35.0136 33.5306C35.989 33.4964 36.9177 33.1043 37.6224 32.429C38.2056 31.8698 38.5656 31.1762 38.7048 30.4514C39.3226 30.5597 39.9571 30.5215 40.5574 30.3397C41.1577 30.158 41.7069 29.8378 42.1608 29.405C42.5228 29.0619 42.8112 28.6486 43.0082 28.1904C43.2052 27.7322 43.3069 27.2386 43.3069 26.7398C43.3069 26.241 43.2052 25.7474 43.0082 25.2892C42.8112 24.831 42.5228 24.4177 42.1608 24.0746L40.4328 22.4114L40.7856 21.0914C41.4993 18.3928 41.1379 15.5225 39.7776 13.085C37.7712 9.47061 33.8784 7.23861 29.6688 7.23861H26.7168C26.5897 7.23231 26.4625 7.2291 26.3352 7.22901H24.5856ZM30.4728 16.1474L36.2448 21.7082L36.252 21.713L40.4304 25.7402C40.5661 25.8689 40.6742 26.0239 40.7481 26.1958C40.822 26.3676 40.8601 26.5527 40.8601 26.7398C40.8601 26.9269 40.822 27.112 40.7481 27.2838C40.6742 27.4557 40.5661 27.6107 40.4304 27.7394C40.15 28.0049 39.7785 28.1529 39.3924 28.1529C39.0062 28.1529 38.6348 28.0049 38.3544 27.7394L35.184 24.6866C34.9516 24.4637 34.642 24.3392 34.32 24.3392C33.998 24.3392 33.6884 24.4637 33.456 24.6866L33.4224 24.7154C33.3092 24.8226 33.2191 24.9517 33.1575 25.0949C33.0959 25.2381 33.0642 25.3923 33.0642 25.5482C33.0642 25.7041 33.0959 25.8583 33.1575 26.0015C33.2191 26.1447 33.3092 26.2738 33.4224 26.381L35.8944 28.7618C36.4704 29.3138 36.4704 30.2114 35.8944 30.7658C35.6395 31.0074 35.3085 31.1526 34.9581 31.1767C34.6078 31.2008 34.26 31.1022 33.9744 30.8978C33.7361 30.7256 33.4449 30.6424 33.1516 30.6625C32.8583 30.6827 32.5813 30.805 32.3688 31.0082C32.1611 31.2068 32.0357 31.4762 32.0175 31.763C31.9992 32.0498 32.0895 32.3329 32.2704 32.5562C32.4858 32.8261 32.5921 33.167 32.5681 33.5115C32.5441 33.8559 32.3916 34.1788 32.1408 34.4162C31.8823 34.6614 31.5455 34.8074 31.1898 34.8284C30.8341 34.8495 30.4825 34.7443 30.1968 34.5314C29.9597 34.3535 29.6673 34.2651 29.3713 34.2818C29.0754 34.2985 28.7948 34.4192 28.5792 34.6226C28.3688 34.8209 28.2412 35.0915 28.2221 35.3799C28.2029 35.6684 28.2936 35.9535 28.476 36.1778C28.6965 36.4513 28.8058 36.7978 28.7823 37.1483C28.7587 37.4988 28.6039 37.8275 28.3488 38.069C28.0647 38.3386 27.688 38.4889 27.2964 38.4889C26.9048 38.4889 26.5281 38.3386 26.244 38.069L25.2048 37.0682L25.584 36.7034C25.946 36.3603 26.2344 35.947 26.4314 35.4888C26.6284 35.0306 26.7301 34.537 26.7301 34.0382C26.7301 33.5394 26.6284 33.0458 26.4314 32.5876C26.2344 32.1294 25.946 31.7161 25.584 31.373C24.8667 30.6856 23.918 30.2917 22.9248 30.269C22.8957 29.2972 22.4843 28.3761 21.78 27.7058C21.0618 27.0187 20.1121 26.6257 19.1184 26.6042C19.0893 25.6324 18.6779 24.7113 17.9736 24.041C17.5125 23.6022 16.9536 23.2794 16.343 23.0996C15.7324 22.9197 15.0877 22.8878 14.4624 23.0066C14.3042 22.2844 13.934 21.6259 13.3992 21.1154C12.9892 20.7242 12.5007 20.4247 11.9661 20.2368C11.4315 20.049 10.863 19.977 10.2984 20.0258C10.1093 18.6194 10.2565 17.1883 10.728 15.8499C11.1994 14.5115 11.9817 13.304 13.0104 12.3266C14.0499 11.3335 15.2963 10.5826 16.6602 10.1278C18.0241 9.67307 19.4716 9.52567 20.8992 9.69621L17.4072 12.2642C16.9604 12.5889 16.584 13.0007 16.3008 13.4748C16.0176 13.949 15.8335 14.4756 15.7594 15.0229C15.6854 15.5702 15.7231 16.1268 15.8702 16.6592C16.0172 17.1915 16.2707 17.6885 16.6152 18.1202C17.3119 18.9938 18.3186 19.5651 19.4259 19.7153C20.5332 19.8655 21.6557 19.583 22.56 18.9266L26.3424 16.1498H30.4704L30.4728 16.1474ZM18.828 14.1962L25.0488 9.62901H26.3352C26.4529 9.62838 26.5705 9.63158 26.688 9.63861H29.6688C33.0384 9.63861 36.1128 11.4266 37.68 14.2514C38.7408 16.1618 39.0192 18.3818 38.4648 20.477L38.4576 20.501L31.8336 14.1002C31.6091 13.875 31.3044 13.7481 30.9864 13.7474H25.9464C25.6917 13.7479 25.4437 13.8294 25.2384 13.9802L21.1392 16.9898C20.7365 17.2781 20.2389 17.4017 19.7482 17.3352C19.2574 17.2687 18.8106 17.0173 18.4992 16.6322C18.3541 16.4534 18.2471 16.2468 18.1848 16.0251C18.1225 15.8034 18.1063 15.5713 18.1371 15.3431C18.1679 15.1149 18.2451 14.8954 18.3639 14.6982C18.4827 14.5009 18.6407 14.3301 18.828 14.1962ZM19.8888 34.8602L19.9128 34.8362L21.78 33.0362L21.8016 33.017C22.0835 32.7607 22.452 32.6204 22.833 32.6244C23.2141 32.6284 23.5795 32.7764 23.856 33.0386C23.9917 33.1673 24.0998 33.3223 24.1737 33.4942C24.2476 33.666 24.2857 33.8512 24.2857 34.0382C24.2857 34.2253 24.2476 34.4104 24.1737 34.5822C24.0998 34.7541 23.9917 34.9091 23.856 35.0378L21.9864 36.8378C21.706 37.1033 21.3345 37.2513 20.9484 37.2513C20.5622 37.2513 20.1908 37.1033 19.9104 36.8378C19.7764 36.711 19.6693 36.5586 19.5954 36.3896C19.5214 36.2206 19.4822 36.0385 19.4799 35.8541C19.4777 35.6697 19.5125 35.4866 19.5823 35.3159C19.6522 35.1452 19.7556 34.9902 19.8864 34.8602H19.8888ZM20.0736 31.3514L20.0496 31.373L18.1824 33.173L18.1584 33.1946C17.8763 33.45 17.5082 33.5893 17.1277 33.5849C16.7472 33.5805 16.3824 33.4325 16.1064 33.1706C15.9722 33.0433 15.865 32.8902 15.7912 32.7205C15.7175 32.5508 15.6787 32.368 15.6771 32.183C15.6755 31.998 15.7112 31.8145 15.7821 31.6436C15.853 31.4727 15.9576 31.3178 16.0896 31.1882L16.1064 31.1714L17.9736 29.3714L17.9904 29.3546C18.272 29.0962 18.6411 28.9543 19.0233 28.9574C19.4055 28.9605 19.7722 29.1085 20.0496 29.3714C20.1839 29.4982 20.2913 29.6508 20.3655 29.82C20.4397 29.9892 20.479 30.1716 20.4813 30.3563C20.4835 30.541 20.4486 30.7243 20.3785 30.8953C20.3085 31.0662 20.2048 31.2214 20.0736 31.3514ZM16.2456 27.7058L14.376 29.5058L14.3592 29.5226C14.0776 29.781 13.7085 29.9229 13.3263 29.9198C12.9441 29.9167 12.5773 29.7688 12.3 29.5058C12.1643 29.3771 12.0562 29.2221 11.9823 29.0502C11.9084 28.8784 11.8703 28.6933 11.8703 28.5062C11.8703 28.3191 11.9084 28.134 11.9823 27.9622C12.0562 27.7903 12.1643 27.6353 12.3 27.5066L14.1672 25.7066C14.4477 25.4404 14.8197 25.292 15.2064 25.292C15.5931 25.292 15.9651 25.4404 16.2456 25.7066C16.3802 25.834 16.4877 25.9872 16.5617 26.1571C16.6356 26.327 16.6746 26.5101 16.6761 26.6954C16.6777 26.8807 16.6419 27.0645 16.5708 27.2356C16.4997 27.4067 16.3948 27.5618 16.2624 27.6914L16.2456 27.7058ZM11.6712 24.7802L9.80399 26.5802C9.52377 26.847 9.15169 26.9958 8.76479 26.9958C8.3779 26.9958 8.00582 26.847 7.72559 26.5802C7.58948 26.4515 7.48107 26.2963 7.40697 26.1242C7.33288 25.9521 7.29466 25.7668 7.29466 25.5794C7.29466 25.3921 7.33288 25.2067 7.40697 25.0346C7.48107 24.8625 7.58948 24.7074 7.72559 24.5786L9.59519 22.7786C9.87557 22.5131 10.247 22.3651 10.6332 22.3651C11.0193 22.3651 11.3908 22.5131 11.6712 22.7786C11.8073 22.9074 11.9157 23.0625 11.9898 23.2346C12.0639 23.4067 12.1021 23.5921 12.1021 23.7794C12.1021 23.9668 12.0639 24.1521 11.9898 24.3242C11.9157 24.4963 11.8073 24.6515 11.6712 24.7802Z" fill="#0099EA"/>
</svg>
