<svg width="39" height="39" viewBox="0 0 39 39" fill="none" xmlns="http://www.w3.org/2000/svg">
<g clip-path="url(#clip0)">
<path d="M21.606 0.11233C19.2758 -0.470232 17.1112 1.29208 16.9552 3.57358C16.7797 6.13539 16.3946 8.48758 15.912 9.88671C15.6073 10.7642 14.7444 12.3559 13.377 13.8818C12.0193 15.4003 10.2521 16.7531 8.18269 17.3186C6.54469 17.7647 4.875 19.1833 4.875 21.2552V31.0076C4.875 33.0673 6.53737 34.5761 8.4045 34.7736C11.0126 35.0515 12.2167 35.7851 13.4452 36.5359L13.5623 36.609C14.2253 37.0112 14.9711 37.4573 15.9266 37.7888C16.8943 38.1203 18.0253 38.3177 19.5 38.3177H28.0312C30.3152 38.3177 31.9288 37.155 32.7454 35.7242C33.14 35.049 33.3533 34.2832 33.3645 33.5012C33.3645 33.1307 33.3084 32.7407 33.1768 32.3702C33.6667 31.7291 34.1031 30.9613 34.3663 30.174C34.6344 29.3696 34.7856 28.3166 34.3761 27.3733C34.5442 27.0565 34.6686 26.7176 34.7636 26.391C34.9513 25.7329 35.0391 25.0065 35.0391 24.3021C35.0391 23.6001 34.9513 22.8761 34.7636 22.2156C34.6784 21.9119 34.5658 21.6166 34.4272 21.3332C34.8541 20.726 35.1287 20.025 35.2279 19.2895C35.3272 18.5539 35.2482 17.8052 34.9976 17.1066C34.4955 15.6636 33.3353 14.4253 32.0726 14.0061C30.0081 13.3187 27.6778 13.3333 25.9399 13.4918C25.5791 13.5242 25.219 13.5649 24.8601 13.6136C25.7056 9.99246 25.6538 6.21952 24.7089 2.62296C24.5446 2.0467 24.2292 1.52483 23.7955 1.11129C23.3619 0.697755 22.8256 0.407578 22.2422 0.270768L21.606 0.11233ZM28.0312 35.8826H19.5C18.2569 35.8826 17.3964 35.7145 16.7213 35.4829C16.0363 35.2465 15.4879 34.9271 14.8298 34.525L14.7323 34.4665C13.3794 33.6401 11.8121 32.6846 8.66287 32.3507C7.85119 32.263 7.3125 31.6438 7.3125 31.0101V21.2552C7.3125 20.6361 7.86337 19.9316 8.82375 19.6708C11.4928 18.9396 13.6427 17.2431 15.1954 15.5076C16.7432 13.777 17.7889 11.9123 18.213 10.6862C18.8053 8.97996 19.2051 6.37671 19.3879 3.73933C19.4488 2.85696 20.2654 2.29146 21.0137 2.47671L21.6523 2.63758C22.0423 2.73508 22.2812 2.98614 22.3543 3.25914C23.3498 7.05194 23.227 11.0517 22.0009 14.7763C21.9315 14.9835 21.919 15.2055 21.9648 15.4191C22.0107 15.6327 22.1131 15.8301 22.2613 15.9906C22.4096 16.151 22.5982 16.2687 22.8076 16.3312C23.0169 16.3938 23.2392 16.3989 23.4512 16.3461L23.4585 16.3436L23.4926 16.3363L23.634 16.3022C24.4675 16.1252 25.3107 15.9974 26.1593 15.9195C27.7753 15.7733 29.7107 15.7879 31.3024 16.3193C31.7289 16.4606 32.3993 17.0505 32.6917 17.9036C32.9526 18.6544 32.9038 19.5368 32.0434 20.3948L31.1829 21.2552L32.0434 22.1181C32.1482 22.2229 32.2993 22.4618 32.4188 22.8859C32.5358 23.293 32.6016 23.7878 32.6016 24.3021C32.6016 24.8188 32.5358 25.3112 32.4188 25.7207C32.2969 26.1448 32.1482 26.3837 32.0434 26.4885L31.1829 27.349L32.0434 28.2118C32.1579 28.3264 32.3091 28.6433 32.0556 29.4013C31.7914 30.1364 31.3715 30.8058 30.8246 31.3635L29.9642 32.224L30.8246 33.0868C30.8393 33.099 30.9246 33.2087 30.9246 33.5012C30.9138 33.8587 30.8123 34.2077 30.6296 34.5152C30.2274 35.2172 29.4036 35.8802 28.0312 35.8802V35.8826Z" fill="#0099EA"/>
</g>
<defs>
<clipPath id="clip0">
<rect width="39" height="39" fill="white"/>
</clipPath>
</defs>
</svg>
